<svg xmlns="http://www.w3.org/2000/svg" viewBox="0 0 270.58 47.78"><defs><style>.cls-1{fill:#fff;}.cls-2{fill:#ffd600;}.cls-3{fill:#fff;}</style></defs><g id="图层_2" data-name="图层 2"><g id="图层_1-2" data-name="图层 1"><path class="cls-1" d="M148.41,4.7H115.52a1.78,1.78,0,0,0-1.34.64l-4.65,6A3.08,3.08,0,0,0,109,13v9.74a1.75,1.75,0,0,0,1.79,1.71h33.81a2,2,0,0,0,1.55-.85l3.7-4.95a2.66,2.66,0,0,0,.38-1.58V6.48A1.8,1.8,0,0,0,148.41,4.7Zm-32.33,4V13H112.7Zm-3.52,7.84h2.85l-2.85,3.68Zm30,4.39H113.33l3.4-4.4h25.85Zm0-8H117.1V8.28h29.27Zm1,7.59v-4h3Zm3-5h-3V13.38l3-3.74Z"/><path class="cls-1" d="M152.43,44.51a1.72,1.72,0,0,0-1.29-.57H131.63V39.66H148a1.82,1.82,0,0,0,1.34-.54,1.75,1.75,0,0,0,.54-1.28,1.78,1.78,0,0,0-.54-1.29A1.82,1.82,0,0,0,148,36H131.63V31.78h18.05a1.72,1.72,0,0,0,1.29-.57,1.85,1.85,0,0,0,.53-1.3,1.78,1.78,0,0,0-.54-1.29,1.75,1.75,0,0,0-1.28-.54H131.63V27a1.85,1.85,0,0,0-.53-1.3,1.79,1.79,0,0,0-2.61,0,1.83,1.83,0,0,0-.57,1.31v1.1H114l.13-.23a1.86,1.86,0,0,0,.13-1.39,1.66,1.66,0,0,0-.86-1.08,1.74,1.74,0,0,0-1.42-.2,1.67,1.67,0,0,0-1.09.88l-4.06,7.45a1.66,1.66,0,0,0-.18,1.51,2,2,0,0,0,.81,1,2.21,2.21,0,0,0,1.28.26,1.75,1.75,0,0,0,1.32-1L112,31.78h15.92V36h-16a1.82,1.82,0,0,0-1.34.54,1.75,1.75,0,0,0-.54,1.28,1.78,1.78,0,0,0,.54,1.29,1.82,1.82,0,0,0,1.34.54h16v4.28H108.47a1.77,1.77,0,0,0-1.31.57,1.81,1.81,0,0,0-.57,1.31,1.67,1.67,0,0,0,.58,1.28,1.9,1.9,0,0,0,1.29.5h42.67a1.84,1.84,0,0,0,1.28-.5,1.69,1.69,0,0,0,.55-1.27A1.86,1.86,0,0,0,152.43,44.51Z"/><path class="cls-1" d="M69.26,42.74a1.89,1.89,0,0,0-.61-2.54,1.86,1.86,0,0,0-1.41-.26l-3.71.92V16.3h4a1.84,1.84,0,0,0,1.3-.52,1.73,1.73,0,0,0,.58-1.3,1.69,1.69,0,0,0-.58-1.29,1.88,1.88,0,0,0-1.3-.56h-4V5.25A1.78,1.78,0,0,0,63,4a1.81,1.81,0,0,0-2.57,0,1.75,1.75,0,0,0-.54,1.28v7.38H55.77a1.84,1.84,0,0,0-1.3.52,1.74,1.74,0,0,0,0,2.58,1.88,1.88,0,0,0,1.3.56h4.11V41.72l-4.6,1.08a1.76,1.76,0,0,0-1.23,1,1.9,1.9,0,0,0,.7,2.35,2,2,0,0,0,1.43.24l12-2.87A1.8,1.8,0,0,0,69.26,42.74Zm3.32-3.11h21.1a1.75,1.75,0,0,0,1.57-1.09l5.06-11.81a2.8,2.8,0,0,0,.25-1.05v-19a2,2,0,0,0-2-2H79.28a1.79,1.79,0,0,0-1.59.82S71.36,16.16,71.33,16.2a3.8,3.8,0,0,0-.59,2.24V37.8A1.84,1.84,0,0,0,72.58,39.63Zm20.06-4.08v-9h3.84Zm4-10h-4V18.13l4-7.89ZM80.33,8.63h16l-4.66,9.19H80.34V8.63Zm0,12.77H91.62v4.17H80.33Zm-.15,5.19H91.61V36H75.1l5.08-9.38ZM79.3,9.29v8.52H74.43ZM74.41,21.4H79.3v4.74l-4.89,9Zm27,23.07a1.75,1.75,0,0,0-1.28-.54H70.48a1.85,1.85,0,0,0-1.3.53,1.74,1.74,0,0,0,0,2.58,1.85,1.85,0,0,0,1.3.53h29.65a1.78,1.78,0,0,0,1.29-.54,1.75,1.75,0,0,0,.54-1.28A1.82,1.82,0,0,0,101.41,44.47Z"/><path class="cls-1" d="M18.42,40.07a1.82,1.82,0,0,0-1.16-.8,1.69,1.69,0,0,0-1.38.28A2,2,0,0,0,15,40.68a1.7,1.7,0,0,0,.25,1.42l3.93,4.76a1.52,1.52,0,0,0,1.19.88,1.73,1.73,0,0,0,.51,0,2.32,2.32,0,0,0,.8-.28,1.9,1.9,0,0,0,.86-1.17,1.63,1.63,0,0,0-.28-1.36ZM7.78,39.56a1.69,1.69,0,0,0-1.38-.28,1.81,1.81,0,0,0-1.16.8L1.36,44.94a1.62,1.62,0,0,0-.28,1.36,1.9,1.9,0,0,0,.86,1.17,2.5,2.5,0,0,0,.79.28,2.18,2.18,0,0,0,.51,0,1.53,1.53,0,0,0,1.19-.88l3.93-4.76a1.69,1.69,0,0,0,.25-1.42A1.86,1.86,0,0,0,7.78,39.56Zm14.6-4.84h-.83V11.2h.68a1.85,1.85,0,0,0,1.3-.53,1.73,1.73,0,0,0,.58-1.29,1.68,1.68,0,0,0-.58-1.29,1.86,1.86,0,0,0-1.3-.53h-.68V5.27A1.78,1.78,0,0,0,21,4a1.81,1.81,0,0,0-2.57,0,1.76,1.76,0,0,0-.54,1.29V7.56H6.37V5.27A1.73,1.73,0,0,0,5.79,4,1.84,1.84,0,0,0,3.2,4a1.76,1.76,0,0,0-.54,1.29V7.56H2A1.78,1.78,0,0,0,.69,8.1,1.75,1.75,0,0,0,.16,9.38,1.72,1.72,0,0,0,.7,10.66,1.76,1.76,0,0,0,2,11.2h.68V34.72H1.83a1.78,1.78,0,0,0-1.29.54A1.76,1.76,0,0,0,0,36.55a1.72,1.72,0,0,0,.54,1.28,1.76,1.76,0,0,0,1.29.54H22.38a1.72,1.72,0,0,0,1.28-.54,1.81,1.81,0,0,0,0-2.58A1.81,1.81,0,0,0,22.38,34.72Zm-4.48,0H6.37V29.35h9.44v-3.7H6.37V20.28h9.44v-3.7H6.37V11.21H17.9Zm30.35-16.9a3.88,3.88,0,0,0-3.4,2H29.5V9.16l8.2-.23c2.87-.08,7.43-.48,7.43-.48a1.88,1.88,0,0,0,1.29-.63,1.79,1.79,0,0,0-.2-2.65,1.91,1.91,0,0,0-1.37-.47s-4.39.37-7.68.5c-2.83.11-6,.24-9.55.31a1.72,1.72,0,0,0-1.28.54,1.76,1.76,0,0,0-.54,1.29V24c0,3.45-.09,7-.26,10.59a79.42,79.42,0,0,1-1.3,10.88,1.66,1.66,0,0,0,.36,1.43,2,2,0,0,0,1.18.66,1.8,1.8,0,0,0,1.33-.24,1.66,1.66,0,0,0,.77-1.19A86.25,86.25,0,0,0,29.24,34.5c.17-3.77.26-7.29.26-10.48v-.47h9.7V45.93A1.84,1.84,0,0,0,41,47.76a1.82,1.82,0,0,0,1.34-.54,1.76,1.76,0,0,0,.54-1.29V23.55h1.92a3.89,3.89,0,1,0,3.42-5.73Zm0,5.51a1.62,1.62,0,1,1,1.62-1.62A1.62,1.62,0,0,1,48.25,23.33Z"/><path class="cls-1" d="M172.56,42a1.78,1.78,0,0,0-1.38-.3l-3.94.74v-17h4.28a1.69,1.69,0,0,0,1.29-.56,1.85,1.85,0,0,0,.53-1.3,1.78,1.78,0,0,0-.54-1.29,1.75,1.75,0,0,0-1.28-.54h-4.28V8.48h4.28a1.84,1.84,0,0,0,1.83-1.83,1.79,1.79,0,0,0-.54-1.29,1.75,1.75,0,0,0-1.28-.54H159.26a1.85,1.85,0,0,0-1.3.53,1.74,1.74,0,0,0-.58,1.29A1.68,1.68,0,0,0,158,7.93a1.85,1.85,0,0,0,1.3.53h4.28V21.69h-4.28a1.85,1.85,0,0,0-1.3.53,1.73,1.73,0,0,0-.58,1.29A1.68,1.68,0,0,0,158,24.8a1.89,1.89,0,0,0,1.3.57h4.28V43.08L159,43.9a1.61,1.61,0,0,0-1.37,1,1.88,1.88,0,0,0,.67,2.39,1.64,1.64,0,0,0,1,.28l.39,0,12.26-2.19a1.81,1.81,0,0,0,.7-3.3Z"/><path class="cls-1" d="M187.16,28.73a1.89,1.89,0,0,0-.39-1.15l-8.62-11.44a2,2,0,0,0-1.19-.73,1.69,1.69,0,0,0-1.36.33,1.72,1.72,0,0,0-.77,1.22,1.9,1.9,0,0,0,.38,1.42l7.88,10.56-8.94,13.78a1.58,1.58,0,0,0-.29,1.5,2.05,2.05,0,0,0,.74,1.06,1.84,1.84,0,0,0,2.64-.54l9.65-15A1.84,1.84,0,0,0,187.16,28.73Z"/><path class="cls-1" d="M196.88,27.52l7.24-9.12a1.76,1.76,0,0,0,.37-1.36,2.14,2.14,0,0,0-.65-1.26,1.78,1.78,0,0,0-1.35-.37,2.06,2.06,0,0,0-1.26.7L195,24l-3.45-6.36V11.52h7a3.9,3.9,0,1,0,.13-3.71H191.5V5.6A1.82,1.82,0,0,0,191,4.3a1.81,1.81,0,0,0-2.64,0,1.85,1.85,0,0,0-.53,1.3V7.81H175.58a1.83,1.83,0,0,0-1.6,1s0,0,0,0a1.88,1.88,0,0,0-.22.85v0a1.82,1.82,0,0,0,.23.87h0a1.82,1.82,0,0,0,1.61,1h12.21V40.65a3.76,3.76,0,0,1-.7,2.38,2,2,0,0,1-1.39.91H185a1.84,1.84,0,0,0-1.88,1.88,1.66,1.66,0,0,0,.55,1.27,1.89,1.89,0,0,0,1.33.5h.73a5.08,5.08,0,0,0,4.32-2,8,8,0,0,0,1.47-4.92V25.3L202,44.61a1.61,1.61,0,0,0,1.16,1,1.69,1.69,0,0,0,.38,0,1.85,1.85,0,0,0,.9-.23,1.89,1.89,0,0,0,.93-1,1.79,1.79,0,0,0-.13-1.5ZM202,8.15a1.63,1.63,0,1,1-1.63,1.63A1.63,1.63,0,0,1,202,8.15Z"/><polygon class="cls-2" points="228.02 0.16 231.4 28.54 266.8 28.54 270.58 0.16 260.05 14.06 249.26 0 238.73 13.97 228.02 0.16"/><rect class="cls-2" x="231.53" y="31.47" width="35.52" height="3.67"/><path class="cls-3" d="M234.65,42.76c-1.05-.35-1.58-.75-1.58-1.18,0-.6.43-.92,1.21-1a2.13,2.13,0,0,1,1.11.33,1.72,1.72,0,0,0,.57.14.57.57,0,0,0,.61-.55.13.13,0,0,0,0-.06c-.21-.58-.94-.9-2.24-1-1.56.12-2.45.84-2.65,2.15q0,1.51,2.34,2.28c1.14.35,1.72.76,1.72,1.22a1.46,1.46,0,0,1-1.63,1.45,2.88,2.88,0,0,1-1.37-.37,1.35,1.35,0,0,0-.55-.23.61.61,0,0,0-.6.65v0c.14.62,1,.94,2.51,1h0c1.85,0,2.87-.88,3-2.53C237.13,44,236.3,43.26,234.65,42.76Z"/><path class="cls-3" d="M246.51,40.06a.58.58,0,0,0-.65-.55h-6.7c-.57,0-.66.36-.66.57,0,.39.23.61.66.61h2.69V47c0,.21.09.57.66.57a.6.6,0,0,0,.66-.57V40.69h2.69a.61.61,0,0,0,.66-.6A0,0,0,0,1,246.51,40.06Z"/><path class="cls-3" d="M254.35,46.39h-4.61V44.11h4.38a.58.58,0,0,0,.65-.55v0a.65.65,0,0,0-.65-.6h-4.38V40.69h4.61a.61.61,0,0,0,.66-.6v0a.61.61,0,0,0-.65-.55h-5.22a.74.74,0,0,0-.57.2.55.55,0,0,0-.13.46v6.74a.59.59,0,0,0,.13.47.74.74,0,0,0,.57.2h5.22A.6.6,0,0,0,255,47v0A.66.66,0,0,0,254.35,46.39Z"/><path class="cls-3" d="M267,46.59l-1.17-6.29a1,1,0,0,0-1-.83c-.64,0-.83.34-.88.61l-1.7,5.32-1.66-5.33a.9.9,0,0,0-.94-.61h0a.94.94,0,0,0-.92.84l-1.16,6.24a.38.38,0,0,0-.06.17,2,2,0,0,0-.05.32c0,.21.09.57.66.57s.67-.25.7-.46l.9-5.78,1.86,5.81a.68.68,0,0,0,.69.43.66.66,0,0,0,.65-.44l1.87-5.72.93,5.68c0,.18.09.48.7.48A.57.57,0,0,0,267,47,2,2,0,0,0,267,46.59Z"/><rect class="cls-3" x="227.99" y="42.53" width="2.03" height="2.02"/><rect class="cls-3" x="268.55" y="42.53" width="2.03" height="2.02"/></g></g></svg>