<?xml version="1.0" encoding="UTF-8"?>
<!DOCTYPE svg PUBLIC "-//W3C//DTD SVG 1.1//EN" "http://www.w3.org/Graphics/SVG/1.1/DTD/svg11.dtd">
<svg xmlns="http://www.w3.org/2000/svg" version="1.1" width="1182px" height="1182px" style="shape-rendering:geometricPrecision; text-rendering:geometricPrecision; image-rendering:optimizeQuality; fill-rule:evenodd; clip-rule:evenodd" xmlns:xlink="http://www.w3.org/1999/xlink">
<g><path style="opacity:1" fill="#003ca5" d="M -0.5,-0.5 C 393.5,-0.5 787.5,-0.5 1181.5,-0.5C 1181.5,393.5 1181.5,787.5 1181.5,1181.5C 787.5,1181.5 393.5,1181.5 -0.5,1181.5C -0.5,787.5 -0.5,393.5 -0.5,-0.5 Z"/></g>
<g><path style="opacity:1" fill="#fbd701" d="M 590.5,221.5 C 592.716,222.203 594.549,223.536 596,225.5C 650.308,296.642 704.808,367.642 759.5,438.5C 814.474,367.231 868.974,295.565 923,223.5C 903.919,370.483 884.585,517.483 865,664.5C 681.236,665.499 497.403,665.833 313.5,665.5C 296.657,518.093 279.49,370.76 262,223.5C 317.333,294.833 372.667,366.167 428,437.5C 482.792,365.888 536.959,293.888 590.5,221.5 Z"/></g>
<g><path style="opacity:1" fill="#fbd700" d="M 316.5,710.5 C 500.5,710.5 684.5,710.5 868.5,710.5C 868.5,729.5 868.5,748.5 868.5,767.5C 684.5,767.5 500.5,767.5 316.5,767.5C 316.5,748.5 316.5,729.5 316.5,710.5 Z"/></g>
<g><path style="opacity:1" fill="#fbfbfd" d="M 354.5,834.5 C 366.477,834.279 377.81,836.779 388.5,842C 395.018,846.449 396.018,851.782 391.5,858C 387.625,859.52 383.625,859.854 379.5,859C 374.376,856.438 369.043,854.438 363.5,853C 353.801,851.118 346.301,854.284 341,862.5C 340.299,865.928 340.632,869.262 342,872.5C 344.921,876.092 348.421,878.925 352.5,881C 360.279,884.593 368.279,887.593 376.5,890C 402.801,900.429 409.635,918.262 397,943.5C 390.774,952.372 382.274,957.872 371.5,960C 356.774,962.616 342.274,961.783 328,957.5C 318.156,954.154 315.156,947.82 319,938.5C 321.098,936.951 323.432,935.951 326,935.5C 332.996,938.748 340.163,941.581 347.5,944C 358.126,946.259 367.626,944.092 376,937.5C 380.217,931.314 381.551,924.648 380,917.5C 377.795,914.96 375.295,912.793 372.5,911C 363.393,906.742 354.059,903.076 344.5,900C 332.371,895.537 323.871,887.37 319,875.5C 317.361,860.611 322.861,849.111 335.5,841C 341.59,837.738 347.924,835.571 354.5,834.5 Z"/></g>
<g><path style="opacity:1" fill="#fbfcfd" d="M 477.5,955.5 C 477.5,921.5 477.5,887.5 477.5,853.5C 462.167,853.5 446.833,853.5 431.5,853.5C 426.578,852.572 424.244,849.572 424.5,844.5C 424.249,840.497 425.916,837.664 429.5,836C 467.5,835.333 505.5,835.333 543.5,836C 551.079,841.167 551.412,846.833 544.5,853C 528.891,854.437 513.224,854.937 497.5,854.5C 497.667,887.835 497.5,921.168 497,954.5C 495.143,959.034 491.809,961.034 487,960.5C 482.371,961.273 479.204,959.606 477.5,955.5 Z"/></g>
<g><path style="opacity:1" fill="#fafafd" d="M 584.5,835.5 C 614.502,835.333 644.502,835.5 674.5,836C 681.16,838.49 682.993,842.99 680,849.5C 678.238,852.268 675.738,853.768 672.5,854C 648.169,854.5 623.836,854.667 599.5,854.5C 599.5,865.833 599.5,877.167 599.5,888.5C 623.502,888.333 647.502,888.5 671.5,889C 677.612,892.293 679.112,897.127 676,903.5C 674.681,905.487 672.848,906.654 670.5,907C 646.836,907.5 623.169,907.667 599.5,907.5C 599.5,919.167 599.5,930.833 599.5,942.5C 624.502,942.333 649.502,942.5 674.5,943C 681.572,945.88 683.239,950.713 679.5,957.5C 678.5,958.333 677.5,959.167 676.5,960C 645.5,960.667 614.5,960.667 583.5,960C 582.333,958.833 581.167,957.667 580,956.5C 578.346,918.251 578.013,879.918 579,841.5C 580.36,838.977 582.193,836.977 584.5,835.5 Z"/></g>
<g><path style="opacity:1" fill="#fafbfd" d="M 749.5,834.5 C 757.729,833.403 763.895,836.403 768,843.5C 776.201,870.603 784.701,897.603 793.5,924.5C 802.762,896.546 811.929,868.546 821,840.5C 829.302,832.568 837.635,832.568 846,840.5C 847.893,843.618 849.226,846.951 850,850.5C 855.035,881.274 860.701,911.941 867,942.5C 867.667,947.167 867.667,951.833 867,956.5C 866.535,957.931 865.701,959.097 864.5,960C 858.392,962.61 852.892,961.776 848,957.5C 843.213,927.443 838.213,897.443 833,867.5C 822.823,897.87 812.489,928.204 802,958.5C 796.654,962.314 791.154,962.48 785.5,959C 774.876,928.296 764.543,897.462 754.5,866.5C 749.669,896.153 744.836,925.819 740,955.5C 739.06,958.773 736.893,960.606 733.5,961C 721.326,962.816 716.826,957.65 720,945.5C 726.21,913.576 732.21,881.576 738,849.5C 738.984,842.151 742.817,837.151 749.5,834.5 Z"/></g>
<g><path style="opacity:1" fill="#b0c1e2" d="M 431.5,853.5 C 446.833,853.5 462.167,853.5 477.5,853.5C 477.5,887.5 477.5,921.5 477.5,955.5C 476.502,922.004 476.168,888.337 476.5,854.5C 461.324,854.829 446.324,854.496 431.5,853.5 Z"/></g>
<g><path style="opacity:1" fill="#fefefe" d="M 261.5,882.5 C 271.833,882.5 282.167,882.5 292.5,882.5C 292.5,892.833 292.5,903.167 292.5,913.5C 282.167,913.5 271.833,913.5 261.5,913.5C 261.5,903.167 261.5,892.833 261.5,882.5 Z"/></g>
<g><path style="opacity:1" fill="#7090cd" d="M 261.5,882.5 C 271.987,881.506 282.654,881.172 293.5,881.5C 293.5,892.5 293.5,903.5 293.5,914.5C 282.654,914.828 271.987,914.494 261.5,913.5C 271.833,913.5 282.167,913.5 292.5,913.5C 292.5,903.167 292.5,892.833 292.5,882.5C 282.167,882.5 271.833,882.5 261.5,882.5 Z"/></g>
<g><path style="opacity:1" fill="#fdfdfe" d="M 923.5,882.5 C 923.5,892.833 923.5,903.167 923.5,913.5C 912.833,913.5 902.167,913.5 891.5,913.5C 891.5,903.167 891.5,892.833 891.5,882.5C 902.167,882.5 912.833,882.5 923.5,882.5 Z"/></g>
<g><path style="opacity:1" fill="#6b8cca" d="M 923.5,882.5 C 924.494,892.987 924.828,903.654 924.5,914.5C 913.321,914.828 902.321,914.495 891.5,913.5C 902.167,913.5 912.833,913.5 923.5,913.5C 923.5,903.167 923.5,892.833 923.5,882.5 Z"/></g>
</svg>
